<svg width="48" height="48" viewBox="0 0 48 48" fill="none" xmlns="http://www.w3.org/2000/svg">
<path d="M17.784 32.6509L23.8674 28.9603L29.9509 32.6509L28.3371 25.7321L33.7326 21.0808L26.6321 20.484L23.8674 13.959L21.1028 20.484L14.0023 21.0808L19.3978 25.7321L17.784 32.6509ZM23.8674 47.7349L16.8058 40.7424H6.99244V30.9291L0 23.8674L6.99244 16.8058V6.99244H16.8058L23.8674 0L30.9291 6.99244H40.7424V16.8058L47.7349 23.8674L40.7424 30.9291V40.7424H30.9291L23.8674 47.7349ZM23.8674 42.9924L29.4924 37.3674H37.3674V29.4924L42.9924 23.8674L37.3674 18.2424V10.3674H29.4924L23.8674 4.74244L18.2424 10.3674H10.3674V18.2424L4.74244 23.8674L10.3674 29.4924V37.3674H18.2424L23.8674 42.9924Z" fill="#0D9488"/>
</svg>
