<svg width="32" height="32" viewBox="0 0 32 32" fill="none" xmlns="http://www.w3.org/2000/svg">
<path d="M16.1049 16.4104L19.6079 14.295L23.1112 16.4104L22.1754 12.4133L25.2683 9.74667L21.2137 9.40375L19.6079 5.64125L18.0024 9.40375L13.9479 9.74667L17.0408 12.4133L16.1049 16.4104ZM20.262 27.0512H26.1658C26.0674 27.6132 25.833 28.0764 25.4624 28.4408C25.0916 28.805 24.6166 29.0319 24.0374 29.1217L5.53453 31.41C4.70314 31.5278 3.95689 31.3312 3.29578 30.8204C2.63439 30.3099 2.25342 29.6389 2.15286 28.8075L0.0249437 11.6092C-0.0756119 10.7778 0.12786 10.0304 0.63536 9.36708C1.14286 8.70347 1.81217 8.32681 2.64328 8.23708L4.41578 8.05125V10.5512L2.97994 10.7117C2.83022 10.7222 2.71272 10.7836 2.62744 10.8958C2.54189 11.0081 2.5098 11.1389 2.53119 11.2883L4.65286 28.4871C4.67425 28.6368 4.73842 28.7543 4.84536 28.8396C4.95203 28.9251 5.08022 28.9572 5.22994 28.9358L20.262 27.0512ZM10.762 23.7179C9.92008 23.7179 9.20744 23.4262 8.62411 22.8429C8.04078 22.2596 7.74911 21.5469 7.74911 20.705V3.01292C7.74911 2.17097 8.04078 1.45833 8.62411 0.875C9.20744 0.291667 9.92008 0 10.762 0H28.4541C29.2961 0 30.0087 0.291667 30.592 0.875C31.1754 1.45833 31.467 2.17097 31.467 3.01292V20.705C31.467 21.5469 31.1754 22.2596 30.592 22.8429C30.0087 23.4262 29.2961 23.7179 28.4541 23.7179H10.762ZM10.762 21.2179H28.4541C28.6038 21.2179 28.7267 21.1699 28.8229 21.0737C28.919 20.9776 28.967 20.8547 28.967 20.705V3.01292C28.967 2.86319 28.919 2.74028 28.8229 2.64417C28.7267 2.54806 28.6038 2.5 28.4541 2.5H10.762C10.6123 2.5 10.4894 2.54806 10.3933 2.64417C10.2972 2.74028 10.2491 2.86319 10.2491 3.01292V20.705C10.2491 20.8547 10.2972 20.9776 10.3933 21.0737C10.4894 21.1699 10.6123 21.2179 10.762 21.2179Z" fill="#686C75"/>
</svg>
