<svg width="22" height="25" viewBox="0 0 22 25" fill="none" xmlns="http://www.w3.org/2000/svg">
<path d="M10.7903 24.4199C9.29486 24.4199 7.89407 24.136 6.58793 23.5681C5.28158 23.0002 4.14104 22.2288 3.1663 21.2539C2.19136 20.2789 1.41996 19.1384 0.8521 17.8323C0.284033 16.5261 0 15.1252 0 13.6296C0 12.1342 0.284033 10.7334 0.8521 9.42724C1.41996 8.12109 2.19136 6.98055 3.1663 6.00561C4.14104 5.03067 5.28158 4.25927 6.58793 3.69141C7.89407 3.12354 9.29486 2.83961 10.7903 2.83961V0L15.3335 4.5432L10.7903 9.08732V6.2474C8.74587 6.2474 7.00424 6.96691 5.56541 8.40595C4.12679 9.84478 3.40748 11.5867 3.40748 13.6317C3.40748 14.8813 3.69459 16.0401 4.2688 17.1081C4.84302 18.1762 5.6176 19.0414 6.59254 19.7038C6.88909 19.177 7.33647 18.7294 7.93468 18.3611C8.53289 17.9925 9.22134 17.761 10 17.6665C9.94219 17.2674 9.86498 16.8683 9.76838 16.4692C9.672 16.0701 9.55992 15.7018 9.43216 15.3642C9.2238 15.5338 8.99657 15.6657 8.75048 15.7598C8.50439 15.8542 8.23942 15.9013 7.9556 15.9013C7.33093 15.9013 6.79537 15.6786 6.34891 15.2332C5.90246 14.7878 5.67923 14.2523 5.67923 13.6268V12.4899C5.67923 12.1675 5.62868 11.8663 5.52757 11.5864C5.42668 11.3065 5.28794 11.0411 5.11137 10.7903C6.05739 10.7698 6.89934 10.8548 7.63721 11.0453C8.28054 11.2155 8.86707 11.4943 9.39678 11.8817C9.9267 12.2693 10.2019 12.8537 10.2224 13.6348C10.2224 13.8063 10.207 13.9635 10.1763 14.1064C10.1455 14.2491 10.093 14.3947 10.0188 14.5432C9.77351 14.3529 9.52824 14.1816 9.28296 14.0292C9.03769 13.877 8.78288 13.7438 8.51853 13.6296C8.84358 13.8804 9.21375 14.2605 9.62903 14.7699C10.0445 15.2791 10.4316 15.8827 10.7903 16.5806C11.1769 15.6544 11.6528 14.7418 12.2182 13.8428C12.7839 12.9435 13.4437 12.1153 14.1978 11.3581C13.7655 11.6625 13.3498 11.9835 12.9507 12.3213C12.5516 12.6589 12.1628 13.0208 11.7842 13.4072C11.6564 13.1974 11.5535 12.9645 11.4754 12.7086C11.3972 12.4524 11.3581 12.1916 11.3581 11.926C11.3581 11.1356 11.6339 10.4648 12.1853 9.91358C12.7366 9.36212 13.4086 9.0864 14.2015 9.0864H15.3338C15.7679 9.0864 16.1266 9.02959 16.4098 8.91598C16.6931 8.80257 16.929 8.67009 17.1177 8.51853C17.3279 8.34812 17.4904 8.15883 17.6052 7.95067C17.6793 9.22216 17.6154 10.358 17.4136 11.3581C17.2368 12.21 16.9122 12.9903 16.4397 13.6988C15.967 14.4074 15.2202 14.7616 14.1993 14.7616C13.9159 14.7616 13.6465 14.7239 13.3912 14.6484C13.1361 14.5727 12.9045 14.4688 12.6966 14.3365C12.5643 14.6956 12.4131 15.1728 12.2429 15.7681C12.0726 16.3633 11.9403 17.0024 11.8457 17.6855C12.5629 17.8182 13.1951 18.0646 13.7425 18.4247C14.2898 18.7848 14.705 19.2112 14.988 19.7038C15.955 19.0416 16.7275 18.1807 17.3056 17.121C17.8839 16.0614 18.1731 14.8976 18.1731 13.6296H21.5806C21.5806 15.1252 21.2965 16.5261 20.7285 17.8323C20.1606 19.1384 19.3892 20.2789 18.4143 21.2539C17.4395 22.2288 16.299 23.0002 14.9926 23.5681C13.6865 24.136 12.2857 24.4199 10.7903 24.4199Z" fill="#0D9488"/>
</svg>
