<svg width="21" height="16" viewBox="0 0 21 16" fill="none" xmlns="http://www.w3.org/2000/svg">
<path d="M0 15.3845V11.6345C0 11.1512 0.16375 10.7419 0.49125 10.4067C0.81875 10.0714 1.21583 9.89733 1.6825 9.8845H4.76525C5.06658 9.8845 5.35283 9.95825 5.624 10.1058C5.895 10.2533 6.11583 10.459 6.2865 10.723C6.7825 11.405 7.3975 11.9358 8.1315 12.3153C8.8655 12.6948 9.65175 12.8845 10.4902 12.8845C11.3389 12.8845 12.1318 12.6948 12.869 12.3153C13.6063 11.9358 14.2179 11.405 14.7037 10.723C14.8947 10.459 15.1233 10.2533 15.3893 10.1058C15.6553 9.95825 15.9306 9.8845 16.2153 9.8845H19.298C19.7748 9.89733 20.1761 10.0714 20.5018 10.4067C20.8274 10.7419 20.9902 11.1512 20.9902 11.6345V15.3845H14.4902V13.0325C13.9197 13.4685 13.2954 13.8028 12.6173 14.0355C11.9389 14.2682 11.2299 14.3845 10.4902 14.3845C9.76725 14.3845 9.06567 14.2672 8.3855 14.0325C7.70533 13.798 7.07675 13.4628 6.49975 13.0268V15.3845H0ZM10.4902 11.5C9.88892 11.5 9.31933 11.3606 8.7815 11.0817C8.24383 10.8029 7.79292 10.4179 7.42875 9.92675C7.17108 9.55508 6.857 9.25158 6.4865 9.01625C6.116 8.78108 5.71275 8.63783 5.27675 8.5865C5.70108 8.066 6.44242 7.66183 7.50075 7.374C8.55908 7.08617 9.55558 6.94225 10.4902 6.94225C11.4249 6.94225 12.4214 7.08617 13.4798 7.374C14.5381 7.66183 15.2826 8.066 15.7132 8.5865C15.2876 8.63783 14.887 8.78108 14.5115 9.01625C14.1358 9.25158 13.8192 9.55508 13.5615 9.92675C13.214 10.4346 12.7697 10.8237 12.2287 11.0942C11.6877 11.3647 11.1082 11.5 10.4902 11.5ZM2.77875 8.5C2.02242 8.5 1.375 8.23075 0.8365 7.69225C0.298 7.15375 0.02875 6.50633 0.02875 5.75C0.02875 4.97683 0.298 4.32525 0.8365 3.79525C1.375 3.26508 2.02242 3 2.77875 3C3.55175 3 4.20333 3.26508 4.7335 3.79525C5.26367 4.32525 5.52875 4.97683 5.52875 5.75C5.52875 6.50633 5.26367 7.15375 4.7335 7.69225C4.20333 8.23075 3.55175 8.5 2.77875 8.5ZM18.2017 8.5C17.4454 8.5 16.798 8.23075 16.2595 7.69225C15.721 7.15375 15.4518 6.50633 15.4518 5.75C15.4518 4.97683 15.721 4.32525 16.2595 3.79525C16.798 3.26508 17.4454 3 18.2017 3C18.9747 3 19.6263 3.26508 20.1565 3.79525C20.6867 4.32525 20.9517 4.97683 20.9517 5.75C20.9517 6.50633 20.6867 7.15375 20.1565 7.69225C19.6263 8.23075 18.9747 8.5 18.2017 8.5ZM10.4902 5.5C9.73392 5.5 9.0865 5.23075 8.548 4.69225C8.0095 4.15375 7.74025 3.50633 7.74025 2.75C7.74025 1.97683 8.0095 1.32525 8.548 0.79525C9.0865 0.265083 9.73392 0 10.4902 0C11.2632 0 11.9148 0.265083 12.445 0.79525C12.9752 1.32525 13.2402 1.97683 13.2402 2.75C13.2402 3.50633 12.9752 4.15375 12.445 4.69225C11.9148 5.23075 11.2632 5.5 10.4902 5.5Z" fill="#0D9488"/>
</svg>
