<svg width="19" height="19" viewBox="0 0 19 19" fill="none" xmlns="http://www.w3.org/2000/svg">
<path d="M5.327 13.673L11.7308 11.7308L13.673 5.327L7.26925 7.26925L5.327 13.673ZM9.49775 10.8077C9.13392 10.8077 8.82542 10.6803 8.57225 10.4255C8.31892 10.1708 8.19225 9.86158 8.19225 9.49775C8.19225 9.13392 8.31967 8.82542 8.5745 8.57225C8.82917 8.31892 9.13842 8.19225 9.50225 8.19225C9.86608 8.19225 10.1746 8.31967 10.4277 8.5745C10.6811 8.82917 10.8077 9.13842 10.8077 9.50225C10.8077 9.86608 10.6803 10.1746 10.4255 10.4277C10.1708 10.6811 9.86158 10.8077 9.49775 10.8077ZM9.50175 19C8.18775 19 6.95267 18.7507 5.7965 18.252C4.64033 17.7533 3.63467 17.0766 2.7795 16.2218C1.92433 15.3669 1.24725 14.3617 0.74825 13.206C0.249417 12.0503 0 10.8156 0 9.50175C0 8.18775 0.249333 6.95267 0.748 5.7965C1.24667 4.64033 1.92342 3.63467 2.77825 2.7795C3.63308 1.92433 4.63833 1.24725 5.794 0.74825C6.94967 0.249417 8.18442 0 9.49825 0C10.8123 0 12.0473 0.249333 13.2035 0.748C14.3597 1.24667 15.3653 1.92342 16.2205 2.77825C17.0757 3.63308 17.7528 4.63833 18.2518 5.794C18.7506 6.94967 19 8.18442 19 9.49825C19 10.8123 18.7507 12.0473 18.252 13.2035C17.7533 14.3597 17.0766 15.3653 16.2218 16.2205C15.3669 17.0757 14.3617 17.7528 13.206 18.2518C12.0503 18.7506 10.8156 19 9.50175 19ZM9.5 17.5C11.723 17.5 13.6121 16.7224 15.1673 15.1673C16.7224 13.6121 17.5 11.723 17.5 9.5C17.5 7.277 16.7224 5.38792 15.1673 3.83275C13.6121 2.27758 11.723 1.5 9.5 1.5C7.277 1.5 5.38792 2.27758 3.83275 3.83275C2.27758 5.38792 1.5 7.277 1.5 9.5C1.5 11.723 2.27758 13.6121 3.83275 15.1673C5.38792 16.7224 7.277 17.5 9.5 17.5Z" fill="#0D9488"/>
</svg>
