<svg width="35" height="43" viewBox="0 0 35 43" fill="none" xmlns="http://www.w3.org/2000/svg">
<path d="M17.0551 21.3188C18.2276 21.3188 19.2313 20.9013 20.0663 20.0663C20.9013 19.2313 21.3188 18.2276 21.3188 17.0551C21.3188 15.8825 20.9013 14.8788 20.0663 14.0438C19.2313 13.2088 18.2276 12.7913 17.0551 12.7913C15.8825 12.7913 14.8788 13.2088 14.0438 14.0438C13.2088 14.8788 12.7913 15.8825 12.7913 17.0551C12.7913 18.2276 13.2088 19.2313 14.0438 20.0663C14.8788 20.9013 15.8825 21.3188 17.0551 21.3188ZM17.0551 36.9881C21.3899 33.0086 24.6055 29.3933 26.7018 26.1422C28.7982 22.8911 29.8463 20.0042 29.8463 17.4814C29.8463 13.6085 28.6116 10.4373 26.1422 7.96791C23.6728 5.49848 20.6437 4.26376 17.0551 4.26376C13.4664 4.26376 10.4373 5.49848 7.96791 7.96791C5.49848 10.4373 4.26376 13.6085 4.26376 17.4814C4.26376 20.0042 5.31194 22.8911 7.40829 26.1422C9.50464 29.3933 12.7202 33.0086 17.0551 36.9881ZM17.0551 42.6376C11.3345 37.7698 7.06186 33.2485 4.23711 29.0735C1.41237 24.8986 0 21.0346 0 17.4814C0 12.1517 1.71439 7.90573 5.14316 4.74344C8.57194 1.58115 12.5426 0 17.0551 0C21.5675 0 25.5382 1.58115 28.9669 4.74344C32.3957 7.90573 34.1101 12.1517 34.1101 17.4814C34.1101 21.0346 32.6977 24.8986 29.873 29.0735C27.0482 33.2485 22.7756 37.7698 17.0551 42.6376Z" fill="#454E50"/>
</svg>
