<svg width="16" height="16" viewBox="0 0 16 16" fill="none" xmlns="http://www.w3.org/2000/svg">
<path d="M7.725 15C6.8195 15 5.9665 14.851 5.166 14.553C4.36567 14.2548 3.63983 13.8391 2.9885 13.3057L1.252 15.0172C1.11567 15.1557 0.942167 15.225 0.7315 15.225C0.520833 15.225 0.34625 15.1557 0.20775 15.0172C0.0692499 14.8789 0 14.7043 0 14.4935C0 14.2828 0.0692499 14.1094 0.20775 13.9733L1.91925 12.2615C1.38592 11.6103 0.97025 10.8804 0.67225 10.0717C0.374083 9.26292 0.225 8.40567 0.225 7.5C0.225 5.40633 0.951583 3.63292 2.40475 2.17975C3.85792 0.726583 5.63133 0 7.725 0H15.225V7.5C15.225 9.59383 14.4984 11.3672 13.0452 12.8202C11.5921 14.2734 9.81867 15 7.725 15ZM7.725 13.5C9.39167 13.5 10.8083 12.9167 11.975 11.75C13.1417 10.5833 13.725 9.16667 13.725 7.5V1.5H7.725C6.05833 1.5 4.64167 2.08333 3.475 3.25C2.30833 4.41667 1.725 5.83333 1.725 7.5C1.725 8.19483 1.83783 8.85575 2.0635 9.48275C2.28917 10.1097 2.60258 10.6745 3.00375 11.177L8.20775 5.97325C8.34408 5.83475 8.51758 5.7655 8.72825 5.7655C8.93892 5.7655 9.11442 5.83567 9.25475 5.976C9.40792 6.12917 9.4845 6.30642 9.4845 6.50775C9.4845 6.70908 9.407 6.88725 9.252 7.04225L4.048 12.2365C4.55067 12.6378 5.11542 12.9487 5.74225 13.1692C6.36925 13.3897 7.03017 13.5 7.725 13.5Z" fill="#0D9488"/>
</svg>
