<svg width="29" height="32" viewBox="0 0 29 32" fill="none" xmlns="http://www.w3.org/2000/svg">
<path d="M12.9167 28.3688V16.4713L2.5 10.4392V22.0483C2.5 22.1336 2.52139 22.2138 2.56417 22.2888C2.60694 22.3635 2.67097 22.4275 2.75625 22.4808L12.9167 28.3688ZM15.4167 28.3688L25.5771 22.4808C25.6624 22.4275 25.7264 22.3635 25.7692 22.2888C25.8119 22.2138 25.8333 22.1336 25.8333 22.0483V10.4392L15.4167 16.4713V28.3688ZM12.6604 31.0963L1.50667 24.6762C1.03222 24.4029 0.6625 24.0376 0.3975 23.5804C0.1325 23.1229 0 22.6207 0 22.0737V9.43292C0 8.88597 0.1325 8.38375 0.3975 7.92625C0.6625 7.46903 1.03222 7.10375 1.50667 6.83042L12.6604 0.410418C13.1346 0.136807 13.6367 0 14.1667 0C14.6967 0 15.1988 0.136807 15.6729 0.410418L26.8267 6.83042C27.3011 7.10375 27.6708 7.46903 27.9358 7.92625C28.2008 8.38375 28.3333 8.88597 28.3333 9.43292V22.0737C28.3333 22.6207 28.2008 23.1229 27.9358 23.5804C27.6708 24.0376 27.3011 24.4029 26.8267 24.6762L15.6729 31.0963C15.1988 31.3699 14.6967 31.5067 14.1667 31.5067C13.6367 31.5067 13.1346 31.3699 12.6604 31.0963ZM20.5929 10.5867L24.4583 8.36875L14.4229 2.56417C14.3376 2.51083 14.2522 2.48417 14.1667 2.48417C14.0811 2.48417 13.9957 2.51083 13.9104 2.56417L10.2917 4.6475L20.5929 10.5867ZM14.1667 14.3175L18.0417 12.0738L7.75 6.125L3.875 8.36875L14.1667 14.3175Z" fill="#686C75"/>
</svg>
