<svg width="24" height="24" viewBox="0 0 24 24" fill="none" xmlns="http://www.w3.org/2000/svg">
<mask id="mask0_50_83" style="mask-type:alpha" maskUnits="userSpaceOnUse" x="0" y="0" width="24" height="24">
<rect width="24" height="24" fill="#D9D9D9"/>
</mask>
<g mask="url(#mask0_50_83)">
<path d="M9.69225 21.5L9.3115 18.4538C9.04367 18.3641 8.769 18.2385 8.4875 18.077C8.20617 17.9153 7.95459 17.7422 7.73275 17.5577L4.9115 18.75L2.604 14.75L5.04425 12.9058C5.02125 12.7571 5.00492 12.6077 4.99525 12.4578C4.98559 12.3078 4.98075 12.1583 4.98075 12.0095C4.98075 11.8673 4.98559 11.7228 4.99525 11.576C5.00492 11.4292 5.02125 11.2686 5.04425 11.0943L2.604 9.25L4.9115 5.26925L7.723 6.452C7.96417 6.261 8.22159 6.08633 8.49525 5.928C8.76892 5.76967 9.03784 5.64242 9.302 5.54625L9.69225 2.5H14.3078L14.6885 5.55575C14.9885 5.66475 15.2599 5.792 15.5028 5.9375C15.7458 6.083 15.991 6.2545 16.2385 6.452L19.0885 5.26925L21.396 9.25L18.9173 11.123C18.9531 11.2845 18.9727 11.4355 18.976 11.576C18.9792 11.7163 18.9808 11.8577 18.9808 12C18.9808 12.1358 18.9775 12.274 18.971 12.4145C18.9647 12.5548 18.9417 12.7154 18.902 12.8963L21.3615 14.75L19.0538 18.75L16.2385 17.548C15.991 17.7455 15.7384 17.9202 15.4808 18.072C15.2231 18.224 14.959 18.3481 14.6885 18.4443L14.3078 21.5H9.69225ZM11 20H12.9655L13.325 17.3212C13.8353 17.1879 14.3017 16.9985 14.724 16.753C15.1465 16.5073 15.5539 16.1916 15.9463 15.8057L18.4308 16.85L19.4155 15.15L17.2463 13.5155C17.3296 13.2565 17.3863 13.0026 17.4163 12.7537C17.4464 12.5051 17.4615 12.2538 17.4615 12C17.4615 11.7397 17.4464 11.4884 17.4163 11.2463C17.3863 11.0039 17.3296 10.7564 17.2463 10.5038L19.4345 8.85L18.45 7.15L15.9365 8.2095C15.6018 7.85183 15.2009 7.53583 14.7338 7.2615C14.2664 6.98717 13.7937 6.79292 13.3155 6.67875L13 4H11.0155L10.6845 6.66925C10.1743 6.78975 9.70325 6.97433 9.27125 7.223C8.83909 7.47183 8.42684 7.79233 8.0345 8.1845L5.55 7.15L4.5655 8.85L6.725 10.4595C6.64167 10.6968 6.58334 10.9437 6.55 11.2C6.51667 11.4563 6.5 11.7262 6.5 12.0095C6.5 12.2698 6.51667 12.525 6.55 12.775C6.58334 13.025 6.6385 13.2718 6.7155 13.5155L4.5655 15.15L5.55 16.85L8.025 15.8C8.4045 16.1897 8.81025 16.5089 9.24225 16.7578C9.67442 17.0064 10.152 17.1974 10.675 17.3307L11 20ZM12.0115 15C12.8435 15 13.5515 14.708 14.1355 14.124C14.7195 13.54 15.0115 12.832 15.0115 12C15.0115 11.168 14.7195 10.46 14.1355 9.876C13.5515 9.292 12.8435 9 12.0115 9C11.1692 9 10.4586 9.292 9.87975 9.876C9.30092 10.46 9.0115 11.168 9.0115 12C9.0115 12.832 9.30092 13.54 9.87975 14.124C10.4586 14.708 11.1692 15 12.0115 15Z" fill="#686C75"/>
</g>
</svg>
