<svg width="21" height="24" viewBox="0 0 21 24" fill="none" xmlns="http://www.w3.org/2000/svg">
<path d="M9.53613 20.9441V12.1604L1.8457 7.70704V16.2779C1.8457 16.3408 1.86149 16.4 1.89308 16.4554C1.92466 16.5105 1.97193 16.5578 2.03489 16.5972L9.53613 20.9441ZM11.3818 20.9441L18.8831 16.5972C18.946 16.5578 18.9933 16.5105 19.0249 16.4554C19.0565 16.4 19.0723 16.3408 19.0723 16.2779V7.70704L11.3818 12.1604V20.9441ZM9.34695 22.9578L1.11234 18.218C0.76207 18.0162 0.489111 17.7465 0.293467 17.409C0.0978221 17.0712 0 16.7004 0 16.2966V6.96415C0 6.56035 0.0978221 6.18957 0.293467 5.8518C0.489111 5.51424 0.76207 5.24457 1.11234 5.04277L9.34695 0.303004C9.69702 0.101002 10.0677 0 10.459 0C10.8503 0 11.221 0.101002 11.571 0.303004L19.8056 5.04277C20.1559 5.24457 20.4289 5.51424 20.6245 5.8518C20.8201 6.18957 20.918 6.56035 20.918 6.96415V16.2966C20.918 16.7004 20.8201 17.0712 20.6245 17.409C20.4289 17.7465 20.1559 18.0162 19.8056 18.218L11.571 22.9578C11.221 23.1598 10.8503 23.2608 10.459 23.2608C10.0677 23.2608 9.69702 23.1598 9.34695 22.9578ZM15.2034 7.81594L18.0571 6.17849L10.6482 1.89308C10.5852 1.8537 10.5221 1.83401 10.459 1.83401C10.3958 1.83401 10.3328 1.8537 10.2698 1.89308L7.59814 3.43116L15.2034 7.81594ZM10.459 10.5703L13.3198 8.91382L5.72168 4.52197L2.86084 6.17849L10.459 10.5703Z" fill="#0D9488"/>
</svg>
