<svg width="31" height="33" viewBox="0 0 31 33" fill="none" xmlns="http://www.w3.org/2000/svg">
<path d="M3.01292 31.8587C2.17097 31.8587 1.45833 31.5671 0.875 30.9837C0.291667 30.4004 0 29.6878 0 28.8458V6.53833C0 5.69639 0.291667 4.98375 0.875 4.40042C1.45833 3.81708 2.17097 3.52542 3.01292 3.52542H5.32042V0H7.88458V3.52542H20.5129V0H23.0129V3.52542H25.3204C26.1624 3.52542 26.875 3.81708 27.4583 4.40042C28.0417 4.98375 28.3333 5.69639 28.3333 6.53833V17.3396L25.8333 19.8396V13.205H2.5V28.8458C2.5 28.9742 2.55347 29.0917 2.66042 29.1983C2.76708 29.3053 2.88458 29.3587 3.01292 29.3587H13.1379L15.6537 31.8587H3.01292ZM2.5 10.705H25.8333V6.53833C25.8333 6.41 25.7799 6.2925 25.6729 6.18583C25.5662 6.07889 25.4487 6.02542 25.3204 6.02542H3.01292C2.88458 6.02542 2.76708 6.07889 2.66042 6.18583C2.55347 6.2925 2.5 6.41 2.5 6.53833V10.705ZM21.6858 32.6921L16.4425 27.4646L18.1987 25.7083L21.6604 29.1696L28.5833 22.2467L30.3396 24.0287L21.6858 32.6921Z" fill="#686C75"/>
</svg>
