<svg width="34" height="25" viewBox="0 0 34 25" fill="none" xmlns="http://www.w3.org/2000/svg">
<path d="M0 24.3592V20.6537C0 19.7949 0.221667 19.0283 0.665 18.3542C1.10833 17.68 1.70042 17.1556 2.44125 16.7808C4.02514 16.0061 5.61778 15.4088 7.21917 14.9888C8.82084 14.569 10.581 14.3592 12.4996 14.3592C14.4185 14.3592 16.1786 14.569 17.78 14.9888C19.3817 15.4088 20.9744 16.0061 22.5583 16.7808C23.2992 17.1556 23.8913 17.68 24.3346 18.3542C24.7779 19.0283 24.9996 19.7949 24.9996 20.6537V24.3592H0ZM28.3329 24.3592V20.4487C28.3329 19.3549 28.0651 18.3122 27.5296 17.3208C26.9938 16.3297 26.2338 15.4793 25.2496 14.7696C26.3671 14.9363 27.4281 15.1942 28.4325 15.5433C29.4367 15.8928 30.395 16.3057 31.3075 16.7821C32.1686 17.2415 32.8336 17.7831 33.3025 18.4067C33.7714 19.03 34.0058 19.7107 34.0058 20.4487V24.3592H28.3329ZM12.4996 11.6667C10.8954 11.6667 9.52222 11.0956 8.38 9.95333C7.23778 8.81083 6.66667 7.4375 6.66667 5.83333C6.66667 4.22917 7.23778 2.85597 8.38 1.71375C9.52222 0.57125 10.8954 0 12.4996 0C14.1038 0 15.4771 0.57125 16.6196 1.71375C17.7618 2.85597 18.3329 4.22917 18.3329 5.83333C18.3329 7.4375 17.7618 8.81083 16.6196 9.95333C15.4771 11.0956 14.1038 11.6667 12.4996 11.6667ZM26.8904 5.83333C26.8904 7.4375 26.3193 8.81083 25.1771 9.95333C24.0349 11.0956 22.6617 11.6667 21.0575 11.6667C20.8694 11.6667 20.6301 11.6453 20.3396 11.6025C20.0488 11.5597 19.8094 11.5128 19.6217 11.4617C20.2789 10.6714 20.784 9.79472 21.1371 8.83167C21.4899 7.86861 21.6663 6.86861 21.6663 5.83167C21.6663 4.79445 21.4863 3.79819 21.1263 2.84292C20.7663 1.88792 20.2647 1.00875 19.6217 0.205416C19.8608 0.119861 20.1001 0.0643053 20.3396 0.0387497C20.5788 0.0129164 20.8181 0 21.0575 0C22.6617 0 24.0349 0.57125 25.1771 1.71375C26.3193 2.85597 26.8904 4.22917 26.8904 5.83333ZM2.49958 21.8592H22.4996V20.6537C22.4996 20.3057 22.4125 19.996 22.2383 19.7246C22.0644 19.4532 21.7883 19.216 21.41 19.0129C20.0383 18.3057 18.626 17.7699 17.1729 17.4054C15.7199 17.0413 14.1621 16.8592 12.4996 16.8592C10.8374 16.8592 9.27972 17.0413 7.82667 17.4054C6.37361 17.7699 4.96125 18.3057 3.58958 19.0129C3.21125 19.216 2.935 19.4532 2.76083 19.7246C2.58667 19.996 2.49958 20.3057 2.49958 20.6537V21.8592ZM12.4996 9.16667C13.4163 9.16667 14.201 8.84028 14.8538 8.1875C15.5065 7.53472 15.8329 6.75 15.8329 5.83333C15.8329 4.91667 15.5065 4.13194 14.8538 3.47917C14.201 2.82639 13.4163 2.5 12.4996 2.5C11.5829 2.5 10.7982 2.82639 10.1454 3.47917C9.49264 4.13194 9.16625 4.91667 9.16625 5.83333C9.16625 6.75 9.49264 7.53472 10.1454 8.1875C10.7982 8.84028 11.5829 9.16667 12.4996 9.16667Z" fill="#686C75"/>
</svg>
