<svg width="25" height="21" viewBox="0 0 25 21" fill="none" xmlns="http://www.w3.org/2000/svg">
<path d="M17.6972 13.5705L22.1718 9.72532L24.905 9.96188L19.893 14.3017L21.3745 20.7995L19.0532 19.3891L17.6972 13.5705ZM15.0779 5.4519L13.8332 2.53169L14.8813 0L17.2736 5.6577L15.0779 5.4519ZM6.926 16.6679L10.802 14.33L14.678 16.6987L13.6628 12.269L17.0774 9.31588L12.5862 8.91598L10.802 4.73238L9.0178 8.88522L4.52659 9.28512L7.94114 12.269L6.926 16.6679ZM4.12668 20.5273L5.88964 12.9362L0 7.83224L7.77072 7.15794L10.802 0L13.8332 7.15794L21.604 7.83224L15.7143 12.9362L17.4773 20.5273L10.802 16.5L4.12668 20.5273Z" fill="#0D9488"/>
</svg>
