<svg width="15" height="17" viewBox="0 0 15 17" fill="none" xmlns="http://www.w3.org/2000/svg">
<path d="M10.125 12.9444H14.5L13.2706 11.6956C13.1055 11.5278 12.9746 11.3287 12.8853 11.1095C12.7959 10.8903 12.75 10.6554 12.75 10.4182V7.61111C12.7501 6.50794 12.4136 5.43186 11.7868 4.53101C11.16 3.63017 10.2737 2.94886 9.25 2.58089V2.27778C9.25 1.80628 9.06563 1.3541 8.73744 1.0207C8.40925 0.687301 7.96413 0.5 7.5 0.5C7.03587 0.5 6.59075 0.687301 6.26256 1.0207C5.93437 1.3541 5.75 1.80628 5.75 2.27778V2.58089C3.71125 3.31333 2.25 5.28933 2.25 7.61111V10.4191C2.25 10.8973 2.06275 11.3569 1.72938 11.6956L0.5 12.9444H4.875M10.125 12.9444V13.8333C10.125 14.5406 9.84844 15.2189 9.35616 15.719C8.86387 16.219 8.19619 16.5 7.5 16.5C6.80381 16.5 6.13613 16.219 5.64384 15.719C5.15156 15.2189 4.875 14.5406 4.875 13.8333V12.9444M10.125 12.9444H4.875" stroke="white" stroke-linecap="round" stroke-linejoin="round"/>
</svg>
