<svg width="17" height="17" viewBox="0 0 17 17" fill="none" xmlns="http://www.w3.org/2000/svg">
<path d="M2.38533 13.6591C4.25059 12.6048 6.3574 12.0523 8.5 12.0556C10.7222 12.0556 12.8084 12.6378 14.6147 13.6591M11.1667 6.72222C11.1667 7.42947 10.8857 8.10774 10.3856 8.60784C9.88552 9.10794 9.20724 9.38889 8.5 9.38889C7.79276 9.38889 7.11448 9.10794 6.61438 8.60784C6.11428 8.10774 5.83333 7.42947 5.83333 6.72222C5.83333 6.01498 6.11428 5.3367 6.61438 4.8366C7.11448 4.33651 7.79276 4.05556 8.5 4.05556C9.20724 4.05556 9.88552 4.33651 10.3856 4.8366C10.8857 5.3367 11.1667 6.01498 11.1667 6.72222ZM16.5 8.5C16.5 9.55058 16.2931 10.5909 15.891 11.5615C15.489 12.5321 14.8997 13.414 14.1569 14.1569C13.414 14.8997 12.5321 15.489 11.5615 15.891C10.5909 16.2931 9.55058 16.5 8.5 16.5C7.44943 16.5 6.40914 16.2931 5.43853 15.891C4.46793 15.489 3.58601 14.8997 2.84315 14.1569C2.10028 13.414 1.511 12.5321 1.10896 11.5615C0.706926 10.5909 0.5 9.55058 0.5 8.5C0.5 6.37827 1.34285 4.34344 2.84315 2.84315C4.34344 1.34285 6.37827 0.5 8.5 0.5C10.6217 0.5 12.6566 1.34285 14.1569 2.84315C15.6571 4.34344 16.5 6.37827 16.5 8.5Z" stroke="white" stroke-linecap="round" stroke-linejoin="round"/>
</svg>
