<svg width="24" height="24" viewBox="0 0 24 24" fill="none" xmlns="http://www.w3.org/2000/svg">
<mask id="mask0_152_19" style="mask-type:alpha" maskUnits="userSpaceOnUse" x="0" y="0" width="24" height="24">
<rect width="24" height="24" fill="#D9D9D9"/>
</mask>
<g mask="url(#mask0_152_19)">
<path d="M1.86549 20.5L12 3L22.1345 20.5H1.86549ZM4.44999 19H19.55L12 6L4.44999 19ZM12 17.8077C12.2288 17.8077 12.4207 17.7303 12.5755 17.5755C12.7303 17.4207 12.8077 17.2288 12.8077 17C12.8077 16.7712 12.7303 16.5793 12.5755 16.4245C12.4207 16.2697 12.2288 16.1923 12 16.1923C11.7712 16.1923 11.5793 16.2697 11.4245 16.4245C11.2697 16.5793 11.1922 16.7712 11.1922 17C11.1922 17.2288 11.2697 17.4207 11.4245 17.5755C11.5793 17.7303 11.7712 17.8077 12 17.8077ZM11.25 15.1923H12.75V10.1923H11.25V15.1923Z" fill="#62666E"/>
</g>
</svg>
