<svg width="18" height="20" viewBox="0 0 18 20" fill="none" xmlns="http://www.w3.org/2000/svg">
<path d="M7.55775 19.8923C5.03475 17.7114 3.14433 15.6819 1.8865 13.8038C0.628833 11.9256 0 10.2013 0 8.63075C0 6.32308 0.748083 4.45317 2.24425 3.021C3.74042 1.589 5.51158 0.873 7.55775 0.873C7.69342 0.873 7.82575 0.875583 7.95475 0.88075C8.08358 0.885916 8.2205 0.900916 8.3655 0.925749V2.4345C8.23083 2.41083 8.09617 2.39308 7.9615 2.38125C7.827 2.36942 7.69242 2.3635 7.55775 2.3635C5.84242 2.3635 4.40558 2.95225 3.24725 4.12975C2.08892 5.30725 1.50975 6.80758 1.50975 8.63075C1.50975 9.83975 2.027 11.2467 3.0615 12.8517C4.09617 14.4569 5.59492 16.1352 7.55775 17.8865C9.49492 16.148 10.9808 14.4843 12.0155 12.8953C13.05 11.3061 13.5769 9.90383 13.5963 8.6885C13.5963 8.668 13.5937 8.64742 13.5885 8.62675C13.5833 8.60625 13.5808 8.58575 13.5808 8.56525H15.087C15.087 8.58575 15.0902 8.60625 15.0965 8.62675C15.1027 8.64742 15.1058 8.668 15.1058 8.6885C15.0866 10.2525 14.4482 11.9688 13.1905 13.8375C11.9328 15.706 10.0553 17.7243 7.55775 19.8923ZM12 6.3075L14.1 4.2075L16.2 6.3075L17.2538 5.25375L15.1538 3.15375L17.2538 1.05375L16.2 0L14.1 2.1L12 0L10.9462 1.05375L13.0463 3.15375L10.9462 5.25375L12 6.3075ZM7.5595 10.2382C8.057 10.2382 8.48233 10.0611 8.8355 9.70675C9.18883 9.35242 9.3655 8.9265 9.3655 8.429C9.3655 7.9315 9.18833 7.50608 8.834 7.15275C8.47967 6.79958 8.05367 6.623 7.556 6.623C7.0585 6.623 6.63317 6.80017 6.28 7.1545C5.92667 7.50883 5.75 7.93483 5.75 8.4325C5.75 8.93 5.92717 9.35533 6.2815 9.7085C6.63583 10.0617 7.06183 10.2382 7.5595 10.2382Z" fill="#686C75"/>
</svg>
